HIERARCHY
ROOT Hips
{
  OFFSET 51.1864 95.611 8.35856
  CHANNELS 6 Xposition Yposition Zposition Zrotation Xrotation Yrotation
  JOINT spine
  {
    OFFSET 0 7.96568 0.458067
    CHANNELS 3 Zrotation Xrotation Yrotation
    JOINT spine1
    {
      OFFSET 0 10.2431 0
      CHANNELS 3 Zrotation Xrotation Yrotation
      JOINT spine2
      {
        OFFSET 0 9.81475 0
        CHANNELS 3 Zrotation Xrotation Yrotation
        JOINT Neck
        {
          OFFSET 0 25.1986 1.20138
          CHANNELS 3 Zrotation Xrotation Yrotation
          JOINT Head
          {
            OFFSET 0 7.61315 0
            CHANNELS 3 Zrotation Xrotation Yrotation
            End Site
            {
              OFFSET 0 18.4281 -6.07733
            }
          }
        }
        JOINT RightShoulder
        {
          OFFSET -4.1327 10.5992 -0.575451
          CHANNELS 3 Zrotation Xrotation Yrotation
          JOINT RightArm
          {
            OFFSET 0 13.9018 0
            CHANNELS 3 Zrotation Xrotation Yrotation
            JOINT RightArmRoll
            {
              OFFSET 0 7.01789 0
              CHANNELS 3 Zrotation Xrotation Yrotation
              JOINT RightForeArm
              {
                OFFSET 0 20.4406 0
                CHANNELS 3 Zrotation Xrotation Yrotation
                JOINT RightForeArmRoll
                {
                  OFFSET 0 7.87516 0
                  CHANNELS 3 Zrotation Xrotation Yrotation
                  JOINT RightHand
                  {
                    OFFSET 0 15.8037 0
                    CHANNELS 3 Zrotation Xrotation Yrotation
                    End Site
                    {
                      OFFSET 0 0 0
                    }
                  }
                }
              }
            }
          }
        }
        JOINT LeftShoulder
        {
          OFFSET 4.1327 10.5992 -0.575451
          CHANNELS 3 Zrotation Xrotation Yrotation
          JOINT LeftArm
          {
            OFFSET 0 13.9018 0
            CHANNELS 3 Zrotation Xrotation Yrotation
            JOINT LeftArmRoll
            {
              OFFSET 0 7.01789 0
              CHANNELS 3 Zrotation Xrotation Yrotation
              JOINT LeftForeArm
              {
                OFFSET 0 20.4406 0
                CHANNELS 3 Zrotation Xrotation Yrotation
                JOINT LeftForeArmRoll
                {
                  OFFSET 0 7.87516 0
                  CHANNELS 3 Zrotation Xrotation Yrotation
                  JOINT LeftHand
                  {
                    OFFSET 0 15.8037 0
                    CHANNELS 3 Zrotation Xrotation Yrotation
                    End Site
                    {
                      OFFSET 0 0 0
                    }
                  }
                }
              }
            }
          }
        }
      }
    }
  }
  JOINT RightUpLeg
  {
    OFFSET -7.06048 -1.2947 -1.0861
    CHANNELS 3 Zrotation Xrotation Yrotation
    JOINT RightUpLegRoll
    {
      OFFSET 0 18.5308 0
      CHANNELS 3 Zrotation Xrotation Yrotation
      JOINT RightLeg
      {
        OFFSET 0 -22.9476 0
        CHANNELS 3 Zrotation Xrotation Yrotation
        JOINT RightLegRoll
        {
          OFFSET 0 23.0226 0
          CHANNELS 3 Zrotation Xrotation Yrotation
          JOINT RightFoot
          {
            OFFSET 0 19.1625 0
            CHANNELS 3 Zrotation Xrotation Yrotation
            JOINT RightToeBase
            {
              OFFSET 0 16.0188 0
              CHANNELS 3 Zrotation Xrotation Yrotation
              End Site
              {
                OFFSET 0.00678979 7.75782 -0.894206
              }
            }
          }
        }
      }
    }
  }
  JOINT LeftUpLeg
  {
    OFFSET 7.06048 -1.2947 -1.0861
    CHANNELS 3 Zrotation Xrotation Yrotation
    JOINT LeftUpLegRoll
    {
      OFFSET 0 18.5309 0
      CHANNELS 3 Zrotation Xrotation Yrotation
      JOINT LeftLeg
      {
        OFFSET 0 22.9475 0
        CHANNELS 3 Zrotation Xrotation Yrotation
        JOINT LeftLegRoll
        {
          OFFSET 0 23.2355 0
          CHANNELS 3 Zrotation Xrotation Yrotation
          JOINT LeftFoot
          {
            OFFSET 0 18.9496 0
            CHANNELS 3 Zrotation Xrotation Yrotation
            JOINT LeftToeBase
            {
              OFFSET 0 16.0188 0
              CHANNELS 3 Zrotation Xrotation Yrotation
              End Site
              {
                OFFSET -0.0304289 7.75782 -0.894207
              }
            }
          }
        }
      }
    }
  }
}
MOTION
Frames: 13
Frame Time: 0.00208333
51.1045 95.5985 8.8267 -0.595282 -2.40253 3.56783 0.112348 -1.94416 -0.0125415 0.224237 0.11546 -0.0462286 0.224846 1.76053 -0.0499558 2.03474 20.1553 -1.14811 -0.202209 -0.399039 -0.50806 73.1631 1.2285 -1.1249 102.294 19.361 22.106 3.74332e-006 -7.45057e-007 -4.11992e-007 2.12208 0.0205843 -0.0528838 -7.08536e-006 1.52695e-006 -3.01529 8.03003 -4.95138 0.697651 -72.1372 -0.265963 1.69347 -105.384 21.8608 -23.9309 1.41131e-006 1.02549e-006 7.42011e-006 5.35417 10.2934 -1.60826 1.2879e-005 1.25332e-006 3 -8.03017 -4.95136 -0.697614 176.654 -1.54271 -2.12935 180 7.0152e-015 178.811 177.332 6.67678 179.584 3.0439e-006 -4.948e-006 0.105739 -19.2237 68.446 19.8974 8.15556 25.5587 -3.03634 -172.546 0.892709 -0.192946 4.54188e-006 -4.6773e-006 -1.08565 -1.62549 -7.7298 0.248397 7.82736e-007 -6.7001e-007 -0.00967954 17.6195 68.503 -19.9328 -8.13649 25.2327 3.48774 
51.1027 95.5976 8.83737 -0.595898 -2.41377 3.57102 0.11231 -1.94369 -0.0123262 0.224365 0.116254 -0.0443427 0.224953 1.76132 -0.048074 2.02947 20.1881 -1.14912 -0.201135 -0.420386 -0.510162 73.1815 1.23186 -1.12556 102.256 19.3632 22.1278 3.74332e-006 -7.45057e-007 -4.11992e-007 2.11553 0.0205844 -0.0521504 -7.08536e-006 1.52695e-006 -3.01496 8.03003 -4.95138 0.697651 -72.1667 -0.249421 1.68886 -105.309 21.8393 -23.8855 1.41131e-006 1.02549e-006 7.42011e-006 5.25359 10.2323 -1.58394 1.2879e-005 1.25332e-006 3 -8.03017 -4.95136 -0.697614 176.658 -1.55811 -2.13095 180 7.0152e-015 178.811 177.334 6.67695 179.584 3.0439e-006 -4.948e-006 0.105739 -19.2268 68.4495 19.9007 8.15559 25.5591 -3.03606 -172.543 0.879117 -0.195261 4.54188e-006 -4.6773e-006 -1.08523 -1.62578 -7.72861 0.248563 7.82736e-007 -6.7001e-007 -0.00967954 17.6166 68.5018 -19.9313 -8.13649 25.2327 3.48774 
51.1003 95.598 8.8363 -0.59651 -2.42537 3.57406 0.112282 -1.9431 -0.012079 0.224522 0.117252 -0.0423341 0.225088 1.76232 -0.0460699 2.02408 20.2205 -1.15026 -0.199787 -0.44183 -0.512416 73.1995 1.23492 -1.12629 102.22 19.3656 22.15 3.74332e-006 -7.45057e-007 -4.11992e-007 2.10796 0.0205845 -0.0514488 -7.08536e-006 1.52695e-006 -3.01463 8.03003 -4.95138 0.697651 -72.1959 -0.233194 1.68436 -105.235 21.8187 -23.8424 1.41131e-006 1.02549e-006 7.42011e-006 5.15728 10.1729 -1.56023 1.2879e-005 1.25332e-006 3 -8.03017 -4.95136 -0.697614 176.662 -1.57401 -2.13261 180 7.0152e-015 178.811 177.335 6.67696 179.583 3.0439e-006 -4.948e-006 0.105739 -19.2299 68.453 19.904 8.15561 25.5594 -3.03581 -172.54 0.864989 -0.197594 4.54188e-006 -4.6773e-006 -1.0848 -1.62611 -7.72727 0.248741 7.82736e-007 -6.7001e-007 -0.00967954 17.6137 68.5005 -19.9298 -8.13649 25.2327 3.48774 
51.102 95.6008 8.85674 -0.597118 -2.43723 3.57701 0.112261 -1.94242 -0.0118095 0.2247 0.118392 -0.0402397 0.225244 1.76346 -0.0439803 2.0186 20.2527 -1.15149 -0.198249 -0.463342 -0.514777 73.2173 1.23777 -1.12708 102.185 19.3682 22.1725 3.74332e-006 -7.45057e-007 -4.11992e-007 2.09968 0.0205846 -0.0507695 -7.08536e-006 1.52695e-006 -3.0143 8.03003 -4.95138 0.697651 -72.225 -0.217188 1.67994 -105.163 21.7985 -23.8011 1.41131e-006 1.02549e-006 7.42011e-006 5.06398 10.1148 -1.53695 1.2879e-005 1.25332e-006 3 -8.03017 -4.95136 -0.697614 176.666 -1.59026 -2.13431 180 7.0152e-015 178.811 177.337 6.67684 179.583 3.0439e-006 -4.948e-006 0.105739 -19.2329 68.4564 19.9073 8.15564 25.5598 -3.03556 -172.537 0.850486 -0.19994 4.54188e-006 -4.6773e-006 -1.08435 -1.62646 -7.72582 0.248926 7.82736e-007 -6.7001e-007 -0.00967954 17.6107 68.4992 -19.9282 -8.13649 25.2327 3.48774 
51.0985 95.5979 8.85583 -0.597724 -2.44923 3.57991 0.112245 -1.94169 -0.0115273 0.22489 0.119613 -0.0380961 0.22541 1.76468 -0.0418418 2.01307 20.2846 -1.15279 -0.196603 -0.484892 -0.517199 73.2349 1.2405 -1.1279 102.15 19.3709 22.1951 3.74332e-006 -7.45057e-007 -4.11992e-007 2.09099 0.0205847 -0.050103 -7.08536e-006 1.52695e-006 -3.01397 8.03003 -4.95138 0.697651 -72.2541 -0.201308 1.67556 -105.092 21.7787 -23.7607 1.41131e-006 1.02549e-006 7.42011e-006 4.97241 10.0574 -1.51391 1.2879e-005 1.25332e-006 3 -8.03017 -4.95136 -0.697614 176.67 -1.60671 -2.13603 180 7.0152e-015 178.811 177.338 6.67666 179.582 3.0439e-006 -4.948e-006 0.105739 -19.236 68.4599 19.9106 8.15566 25.5601 -3.03533 -172.535 0.835768 -0.202294 4.54188e-006 -4.6773e-006 -1.0839 -1.62683 -7.7243 0.249116 7.82736e-007 -6.7001e-007 -0.00967954 17.6077 68.4979 -19.9266 -8.13649 25.2327 3.48774 
51.096 95.598 8.85669 -0.598328 -2.46127 3.58279 0.112229 -1.94096 -0.0112419 0.225082 0.120854 -0.0359404 0.22558 1.76592 -0.0396911 2.00754 20.3166 -1.15409 -0.194931 -0.506452 -0.519636 73.2524 1.2432 -1.12872 102.115 19.3736 22.2178 3.74332e-006 -7.45057e-007 -4.11992e-007 2.0822 0.0205848 -0.0494396 -7.08536e-006 1.52695e-006 -3.01364 8.03003 -4.95138 0.697651 -72.2831 -0.18546 1.6712 -105.021 21.7589 -23.7206 1.41131e-006 1.02549e-006 7.42011e-006 4.88131 10.0002 -1.49095 1.2879e-005 1.25332e-006 3 -8.03017 -4.95136 -0.697614 176.675 -1.62321 -2.13776 180 7.0152e-015 178.811 177.34 6.67644 179.581 3.0439e-006 -4.948e-006 0.105739 -19.2391 68.4634 19.9139 8.15568 25.5604 -3.0351 -172.532 0.820997 -0.20465 4.54188e-006 -4.6773e-006 -1.08345 -1.62721 -7.72277 0.249307 7.82736e-007 -6.7001e-007 -0.00967954 17.6047 68.4966 -19.9249 -8.13649 25.2327 3.48774 
51.0958 95.5987 8.8633 -0.598931 -2.47324 3.5857 0.112212 -1.94024 -0.0109629 0.225269 0.122054 -0.0338091 0.225743 1.76712 -0.0375649 2.00203 20.3486 -1.15538 -0.193316 -0.527993 -0.522043 73.2701 1.24596 -1.12954 102.08 19.3762 22.2404 3.74332e-006 -7.45057e-007 -4.11992e-007 2.07361 0.0205849 -0.0487699 -7.08536e-006 1.52695e-006 -3.01331 8.03003 -4.95138 0.697651 -72.3122 -0.169548 1.66681 -104.949 21.7389 -23.68 1.41131e-006 1.02549e-006 7.42011e-006 4.78942 9.94268 -1.46787 1.2879e-005 1.25332e-006 3 -8.03017 -4.95136 -0.697614 176.679 -1.6396 -2.13948 180 7.0152e-015 178.811 177.341 6.67628 179.581 3.0439e-006 -4.948e-006 0.105739 -19.2422 68.4669 19.9172 8.1557 25.5607 -3.03487 -172.529 0.806333 -0.207002 4.54188e-006 -4.6773e-006 -1.08301 -1.62757 -7.72127 0.249496 7.82736e-007 -6.7001e-007 -0.00967954 17.6017 68.4953 -19.9233 -8.13649 25.2327 3.48774 
51.1057 95.6011 8.90018 -0.599535 -2.48502 3.58868 0.112189 -1.93959 -0.0106997 0.225441 0.123153 -0.0317392 0.225893 1.76822 -0.0354997 1.99658 20.3808 -1.15659 -0.19184 -0.549485 -0.524374 73.2879 1.24887 -1.13031 102.045 19.3787 22.2628 3.74332e-006 -7.45057e-007 -4.11992e-007 2.06554 0.0205851 -0.0480842 -7.08536e-006 1.52695e-006 -3.01298 8.03003 -4.95138 0.697651 -72.3413 -0.153479 1.66237 -104.876 21.7185 -23.6382 1.41131e-006 1.02549e-006 7.42011e-006 4.69546 9.88421 -1.44451 1.2879e-005 1.25332e-006 3 -8.03017 -4.95136 -0.697614 176.683 -1.65575 -2.14117 180 7.0152e-015 178.811 177.343 6.6762 179.58 3.0439e-006 -4.948e-006 0.105739 -19.2453 68.4703 19.9205 8.15573 25.5611 -3.03462 -172.526 0.791937 -0.209344 4.54188e-006 -4.6773e-006 -1.08257 -1.62792 -7.71985 0.249679 7.82736e-007 -6.7001e-007 -0.00967954 17.5987 68.494 -19.9217 -8.13649 25.2327 3.48774 
51.1002 95.6031 8.89867 -0.60014 -2.49652 3.59177 0.112157 -1.93903 -0.0104621 0.225589 0.12409 -0.0297674 0.226019 1.76916 -0.0335323 1.99123 20.4133 -1.1577 -0.190586 -0.5709 -0.526583 73.306 1.25202 -1.13102 102.008 19.381 22.2849 3.74332e-006 -7.45057e-007 -4.11992e-007 2.05827 0.0205852 -0.0473731 -7.08536e-006 1.52695e-006 -3.01265 8.03003 -4.95138 0.697651 -72.3706 -0.137157 1.65783 -104.802 21.6975 -23.5945 1.41131e-006 1.02549e-006 7.42011e-006 4.59818 9.82429 -1.42068 1.2879e-005 1.25332e-006 3 -8.03017 -4.95136 -0.697614 176.687 -1.6715 -2.14281 180 7.0152e-015 178.811 177.344 6.67624 179.58 3.0439e-006 -4.948e-006 0.105739 -19.2483 68.4738 19.9239 8.15575 25.5614 -3.03436 -172.524 0.77797 -0.211672 4.54188e-006 -4.6773e-006 -1.08214 -1.62824 -7.71855 0.249853 7.82736e-007 -6.7001e-007 -0.00967954 17.5958 68.4927 -19.9202 -8.13649 25.2327 3.48774 
51.1136 95.5698 8.87142 -0.600748 -2.50761 3.59501 0.112114 -1.93861 -0.0102595 0.225704 0.124804 -0.0279305 0.226114 1.76987 -0.0316994 1.98603 20.4463 -1.15865 -0.189635 -0.592209 -0.528625 73.3246 1.2555 -1.13164 101.97 19.3831 22.3066 3.74332e-006 -7.45057e-007 -4.11992e-007 2.05213 0.0205852 -0.0466269 -7.08536e-006 1.52695e-006 -3.01232 8.03003 -4.95138 0.697651 -72.4001 -0.120488 1.65318 -104.726 21.6755 -23.5483 1.41131e-006 1.02549e-006 7.42011e-006 4.49632 9.76237 -1.39621 1.2879e-005 1.25332e-006 3 -8.03017 -4.95136 -0.697614 176.691 -1.6867 -2.14438 180 7.0152e-015 178.811 177.346 6.67649 179.579 3.0439e-006 -4.948e-006 0.105739 -19.2514 68.4773 19.9272 8.15578 25.5618 -3.03407 -172.521 0.764593 -0.213978 4.54188e-006 -4.6773e-006 -1.08172 -1.62851 -7.71743 0.250015 7.82736e-007 -6.7001e-007 -0.00967954 17.5929 68.4915 -19.9188 -8.13649 25.2327 3.48774 
51.1129 95.5748 8.88824 -0.60136 -2.51819 3.59844 0.112057 -1.93836 -0.0101015 0.225777 0.125233 -0.0262654 0.22617 1.7703 -0.0300375 1.98099 20.4798 -1.15942 -0.18907 -0.613383 -0.530454 73.3437 1.25939 -1.13214 101.931 19.3849 22.3277 3.74332e-006 -7.45057e-007 -4.11992e-007 2.04741 0.0205853 -0.0458362 -7.08536e-006 1.52695e-006 -3.012 8.03003 -4.95138 0.697651 -72.4298 -0.103378 1.64836 -104.647 21.6524 -23.4987 1.41131e-006 1.02549e-006 7.42011e-006 4.38862 9.69791 -1.37091 1.2879e-005 1.25332e-006 3 -8.03017 -4.95136 -0.697614 176.694 -1.7012 -2.14587 180 7.0152e-015 178.811 177.347 6.67698 179.579 3.0439e-006 -4.948e-006 0.105739 -19.2545 68.4808 19.9305 8.1558 25.5622 -3.03375 -172.518 0.751966 -0.216258 4.54188e-006 -4.6773e-006 -1.08132 -1.62873 -7.71652 0.250162 7.82736e-007 -6.7001e-007 -0.00967954 17.5902 68.4903 -19.9175 -8.13649 25.2327 3.48774 
51.0801 95.5964 8.88834 -0.601976 -2.52816 3.60211 0.111981 -1.93831 -0.00999769 0.2258 0.125318 -0.0248089 0.226177 1.77038 -0.0285835 1.97618 20.5139 -1.15996 -0.188973 -0.634392 -0.532024 73.3635 1.2638 -1.13251 101.889 19.3862 22.3482 3.74332e-006 -7.45057e-007 -4.11992e-007 2.04443 0.0205853 -0.0449913 -7.08536e-006 1.52695e-006 -3.01168 8.03003 -4.95138 0.697651 -72.4597 -0.0857314 1.64336 -104.565 21.6279 -23.4451 1.41131e-006 1.02549e-006 7.42011e-006 4.27382 9.63036 -1.34462 1.2879e-005 1.25332e-006 3 -8.03017 -4.95136 -0.697614 176.698 -1.71485 -2.14725 180 7.0152e-015 178.811 177.348 6.67774 179.579 3.0439e-006 -4.948e-006 0.105739 -19.2575 68.4842 19.9338 8.15583 25.5626 -3.03339 -172.515 0.740251 -0.218506 4.54188e-006 -4.6773e-006 -1.08095 -1.62889 -7.71588 0.25029 7.82736e-007 -6.7001e-007 -0.00967954 17.5877 68.4891 -19.9163 -8.13649 25.2327 3.48774 
51.089 95.59 8.8927 -0.602598 -2.5374 3.60606 0.111884 -1.9385 -0.00995755 0.225763 0.124997 -0.0235976 0.226127 1.77006 -0.0273738 1.97161 20.5489 -1.16023 -0.189425 -0.655208 -0.53329 73.3841 1.26881 -1.13272 101.845 19.3871 22.3679 3.74332e-006 -7.45057e-007 -4.11992e-007 2.04348 0.0205853 -0.0440828 -7.08536e-006 1.52695e-006 -3.01136 8.03003 -4.95138 0.697651 -72.49 -0.0674539 1.63812 -104.479 21.6017 -23.3867 1.41131e-006 1.02549e-006 7.42011e-006 4.15066 9.55918 -1.31715 1.2879e-005 1.25332e-006 3 -8.03017 -4.95136 -0.697614 176.702 -1.72749 -2.14851 180 7.0152e-015 178.811 177.349 6.67884 179.578 3.0439e-006 -4.948e-006 0.105739 -19.2606 68.4877 19.9371 8.15587 25.5631 -3.03298 -172.512 0.729608 -0.220716 4.54188e-006 -4.6773e-006 -1.0806 -1.62897 -7.71555 0.250396 7.82736e-007 -6.7001e-007 -0.00967954 17.5852 68.488 -19.9153 -8.13649 25.2327 3.48774 
